G04 (created by PCBNEW (22-Jun-2014 BZR 4027)-stable) date Fri 01 Jan 2016 12:19:58 PM EST*
%MOIN*%
G04 Gerber Fmt 3.4, Leading zero omitted, Abs format*
%FSLAX34Y34*%
G01*
G70*
G90*
G04 APERTURE LIST*
%ADD10C,0.00590551*%
%ADD11R,0.055X0.055*%
%ADD12C,0.055*%
%ADD13C,0.06*%
%ADD14R,0.06X0.06*%
G04 APERTURE END LIST*
G54D10*
G54D11*
X57500Y-37500D03*
G54D12*
X57500Y-36500D03*
X56500Y-36500D03*
X65500Y-44500D03*
X65500Y-46500D03*
X62500Y-44500D03*
X62500Y-46500D03*
X56500Y-46500D03*
X56500Y-44500D03*
X59500Y-46500D03*
X59500Y-44500D03*
X53500Y-44500D03*
X53500Y-46500D03*
X50500Y-44500D03*
X50500Y-46500D03*
G54D13*
X61000Y-43500D03*
X61000Y-47500D03*
X55000Y-47500D03*
X55000Y-43500D03*
X49000Y-43500D03*
X49000Y-47500D03*
X47500Y-47500D03*
X47500Y-43500D03*
X61000Y-39000D03*
X61000Y-35000D03*
X63000Y-35000D03*
X63000Y-39000D03*
G54D14*
X55000Y-41000D03*
G54D13*
X54000Y-41000D03*
X53000Y-41000D03*
G54D14*
X62750Y-40750D03*
G54D13*
X61750Y-40750D03*
G54D14*
X47750Y-37250D03*
G54D13*
X47750Y-38250D03*
G54D11*
X49500Y-38500D03*
G54D12*
X50500Y-38500D03*
X51500Y-38500D03*
X52500Y-38500D03*
X52500Y-35500D03*
X51500Y-35500D03*
X50500Y-35500D03*
X49500Y-35500D03*
G54D11*
X49000Y-41000D03*
G54D12*
X48000Y-41000D03*
M02*
