G04 (created by PCBNEW (22-Jun-2014 BZR 4027)-stable) date Fri 01 Jan 2016 12:19:58 PM EST*
%MOIN*%
G04 Gerber Fmt 3.4, Leading zero omitted, Abs format*
%FSLAX34Y34*%
G01*
G70*
G90*
G04 APERTURE LIST*
%ADD10C,0.00590551*%
%ADD11R,0.055X0.055*%
%ADD12C,0.055*%
%ADD13C,0.06*%
%ADD14R,0.06X0.06*%
%ADD15C,0.011811*%
%ADD16C,0.01*%
%ADD17C,0.0275591*%
G04 APERTURE END LIST*
G54D10*
G54D11*
X57500Y-37500D03*
G54D12*
X57500Y-36500D03*
X56500Y-36500D03*
X65500Y-44500D03*
X65500Y-46500D03*
X62500Y-44500D03*
X62500Y-46500D03*
X56500Y-46500D03*
X56500Y-44500D03*
X59500Y-46500D03*
X59500Y-44500D03*
X53500Y-44500D03*
X53500Y-46500D03*
X50500Y-44500D03*
X50500Y-46500D03*
G54D13*
X61000Y-43500D03*
X61000Y-47500D03*
X55000Y-47500D03*
X55000Y-43500D03*
X49000Y-43500D03*
X49000Y-47500D03*
X47500Y-47500D03*
X47500Y-43500D03*
X61000Y-39000D03*
X61000Y-35000D03*
X63000Y-35000D03*
X63000Y-39000D03*
G54D14*
X55000Y-41000D03*
G54D13*
X54000Y-41000D03*
X53000Y-41000D03*
G54D14*
X62750Y-40750D03*
G54D13*
X61750Y-40750D03*
G54D14*
X47750Y-37250D03*
G54D13*
X47750Y-38250D03*
G54D11*
X49500Y-38500D03*
G54D12*
X50500Y-38500D03*
X51500Y-38500D03*
X52500Y-38500D03*
X52500Y-35500D03*
X51500Y-35500D03*
X50500Y-35500D03*
X49500Y-35500D03*
G54D11*
X49000Y-41000D03*
G54D12*
X48000Y-41000D03*
G54D15*
X63000Y-39000D02*
X63000Y-40500D01*
X63000Y-40500D02*
X62750Y-40750D01*
G54D16*
X63000Y-40500D02*
X62750Y-40750D01*
G54D15*
X54000Y-41000D02*
X52500Y-42500D01*
X52500Y-42500D02*
X48000Y-42500D01*
X48000Y-42500D02*
X47500Y-43000D01*
X47500Y-43000D02*
X47500Y-43500D01*
G54D16*
X47500Y-43500D02*
X47500Y-43000D01*
X47500Y-43000D02*
X48000Y-42500D01*
G54D15*
X47500Y-47500D02*
X49000Y-47500D01*
X49000Y-47500D02*
X50000Y-46500D01*
X50000Y-46500D02*
X53500Y-46500D01*
G54D16*
X50500Y-46500D02*
X50000Y-46500D01*
X50000Y-46500D02*
X49000Y-47500D01*
G54D15*
X49000Y-43500D02*
X50000Y-44500D01*
X50000Y-44500D02*
X50500Y-44500D01*
X50500Y-44500D02*
X53500Y-44500D01*
X53500Y-44500D02*
X54500Y-43500D01*
X54500Y-43500D02*
X55000Y-43500D01*
X55000Y-43500D02*
X56000Y-44500D01*
X56000Y-44500D02*
X56500Y-44500D01*
X56500Y-44500D02*
X59500Y-44500D01*
G54D16*
X50500Y-44500D02*
X50000Y-44500D01*
X56500Y-44500D02*
X56000Y-44500D01*
X56000Y-44500D02*
X55000Y-43500D01*
X55000Y-43500D02*
X54500Y-43500D01*
X54500Y-43500D02*
X53500Y-44500D01*
G54D15*
X56500Y-39500D02*
X54500Y-39500D01*
X65500Y-44500D02*
X62500Y-44500D01*
X62500Y-44500D02*
X61500Y-43500D01*
X61500Y-43500D02*
X60500Y-43500D01*
X60500Y-43500D02*
X56500Y-39500D01*
X57500Y-36500D02*
X54500Y-39500D01*
X54500Y-39500D02*
X52500Y-39500D01*
X52500Y-39500D02*
X51500Y-38500D01*
G54D16*
X51500Y-38500D02*
X52500Y-39500D01*
X61000Y-43500D02*
X61500Y-43500D01*
X61500Y-43500D02*
X62500Y-44500D01*
X56500Y-39500D02*
X60500Y-43500D01*
X60500Y-43500D02*
X61000Y-43500D01*
G54D15*
X50500Y-38500D02*
X50500Y-39500D01*
X50500Y-39500D02*
X49000Y-41000D01*
X49000Y-41000D02*
X53000Y-41000D01*
X50500Y-38500D02*
X51500Y-37500D01*
X51500Y-37500D02*
X51500Y-35500D01*
G54D16*
X50500Y-39500D02*
X49750Y-40250D01*
X49750Y-40250D02*
X49000Y-41000D01*
G54D15*
X57500Y-37500D02*
X58500Y-37500D01*
X58500Y-37500D02*
X61000Y-35000D01*
X61000Y-35000D02*
X63000Y-35000D01*
G54D16*
X61000Y-35000D02*
X63000Y-35000D01*
G54D15*
X55000Y-47500D02*
X56000Y-46500D01*
X56000Y-46500D02*
X56500Y-46500D01*
X56500Y-46500D02*
X59500Y-46500D01*
X59500Y-46500D02*
X60500Y-47500D01*
X60500Y-47500D02*
X61000Y-47500D01*
X61000Y-47500D02*
X62000Y-46500D01*
X62000Y-46500D02*
X65500Y-46500D01*
G54D16*
X56500Y-46500D02*
X56000Y-46500D01*
X61000Y-47500D02*
X60500Y-47500D01*
X60500Y-47500D02*
X59500Y-46500D01*
X62500Y-46500D02*
X62000Y-46500D01*
X62000Y-46500D02*
X61000Y-47500D01*
G54D17*
X52500Y-38500D02*
X52500Y-36800D01*
X52500Y-36800D02*
X54650Y-34650D01*
X47750Y-37250D02*
X47750Y-35950D01*
X54450Y-34450D02*
X54650Y-34650D01*
X54650Y-34650D02*
X56500Y-36500D01*
X49250Y-34450D02*
X54450Y-34450D01*
X47750Y-35950D02*
X49250Y-34450D01*
X47750Y-37250D02*
X49500Y-35500D01*
M02*
