G04 (created by PCBNEW (22-Jun-2014 BZR 4027)-stable) date Fri 01 Jan 2016 12:19:58 PM EST*
%MOIN*%
G04 Gerber Fmt 3.4, Leading zero omitted, Abs format*
%FSLAX34Y34*%
G01*
G70*
G90*
G04 APERTURE LIST*
%ADD10C,0.00590551*%
%ADD11C,0.012*%
%ADD12C,0.005*%
%ADD13C,0.006*%
%ADD14C,0.01*%
%ADD15C,0.008*%
%ADD16C,0.0075*%
G04 APERTURE END LIST*
G54D10*
G54D11*
X56000Y-36500D02*
X57500Y-38000D01*
X57500Y-38000D02*
X58000Y-38000D01*
X58000Y-38000D02*
X58500Y-37500D01*
X58500Y-37500D02*
X58500Y-36500D01*
X58500Y-36500D02*
X57500Y-35500D01*
X57500Y-35500D02*
X56500Y-35500D01*
X56500Y-35500D02*
X56000Y-36000D01*
X56000Y-36000D02*
X56000Y-36500D01*
G54D12*
X65000Y-45500D02*
G75*
G03X65000Y-45500I-1000J0D01*
G74*
G01*
X62500Y-44000D02*
X65500Y-44000D01*
X65500Y-44000D02*
X65500Y-47000D01*
X65500Y-47000D02*
X62500Y-47000D01*
X62500Y-44000D02*
X62500Y-47000D01*
X59000Y-45500D02*
G75*
G03X59000Y-45500I-1000J0D01*
G74*
G01*
X59500Y-47000D02*
X56500Y-47000D01*
X56500Y-47000D02*
X56500Y-44000D01*
X56500Y-44000D02*
X59500Y-44000D01*
X59500Y-47000D02*
X59500Y-44000D01*
X53000Y-45500D02*
G75*
G03X53000Y-45500I-1000J0D01*
G74*
G01*
X50500Y-44000D02*
X53500Y-44000D01*
X53500Y-44000D02*
X53500Y-47000D01*
X53500Y-47000D02*
X50500Y-47000D01*
X50500Y-44000D02*
X50500Y-47000D01*
G54D11*
X61000Y-43500D02*
X61000Y-43900D01*
X61000Y-43900D02*
X61400Y-43900D01*
X61400Y-43900D02*
X61400Y-47100D01*
X61400Y-47100D02*
X60600Y-47100D01*
X60600Y-47100D02*
X60600Y-43900D01*
X60600Y-43900D02*
X61000Y-43900D01*
X61200Y-43900D02*
X61400Y-44100D01*
X61000Y-47500D02*
X61000Y-47100D01*
X55000Y-47500D02*
X55000Y-47100D01*
X55000Y-47100D02*
X54600Y-47100D01*
X54600Y-47100D02*
X54600Y-43900D01*
X54600Y-43900D02*
X55400Y-43900D01*
X55400Y-43900D02*
X55400Y-47100D01*
X55400Y-47100D02*
X55000Y-47100D01*
X54800Y-47100D02*
X54600Y-46900D01*
X55000Y-43500D02*
X55000Y-43900D01*
X49000Y-43500D02*
X49000Y-43900D01*
X49000Y-43900D02*
X49400Y-43900D01*
X49400Y-43900D02*
X49400Y-47100D01*
X49400Y-47100D02*
X48600Y-47100D01*
X48600Y-47100D02*
X48600Y-43900D01*
X48600Y-43900D02*
X49000Y-43900D01*
X49200Y-43900D02*
X49400Y-44100D01*
X49000Y-47500D02*
X49000Y-47100D01*
X47500Y-47500D02*
X47500Y-47100D01*
X47500Y-47100D02*
X47100Y-47100D01*
X47100Y-47100D02*
X47100Y-43900D01*
X47100Y-43900D02*
X47900Y-43900D01*
X47900Y-43900D02*
X47900Y-47100D01*
X47900Y-47100D02*
X47500Y-47100D01*
X47300Y-47100D02*
X47100Y-46900D01*
X47500Y-43500D02*
X47500Y-43900D01*
X61000Y-39000D02*
X61000Y-38600D01*
X61000Y-38600D02*
X60600Y-38600D01*
X60600Y-38600D02*
X60600Y-35400D01*
X60600Y-35400D02*
X61400Y-35400D01*
X61400Y-35400D02*
X61400Y-38600D01*
X61400Y-38600D02*
X61000Y-38600D01*
X60800Y-38600D02*
X60600Y-38400D01*
X61000Y-35000D02*
X61000Y-35400D01*
X63000Y-35000D02*
X63000Y-35400D01*
X63000Y-35400D02*
X63400Y-35400D01*
X63400Y-35400D02*
X63400Y-38600D01*
X63400Y-38600D02*
X62600Y-38600D01*
X62600Y-38600D02*
X62600Y-35400D01*
X62600Y-35400D02*
X63000Y-35400D01*
X63200Y-35400D02*
X63400Y-35600D01*
X63000Y-39000D02*
X63000Y-38600D01*
G54D13*
X55500Y-40500D02*
X55500Y-41500D01*
X55500Y-41500D02*
X52500Y-41500D01*
X52500Y-41500D02*
X52500Y-40500D01*
X52500Y-40500D02*
X55500Y-40500D01*
X54500Y-41500D02*
X54500Y-40500D01*
X63250Y-40250D02*
X63250Y-41250D01*
X63250Y-41250D02*
X61250Y-41250D01*
X61250Y-41250D02*
X61250Y-40250D01*
X61250Y-40250D02*
X63250Y-40250D01*
X47250Y-36750D02*
X48250Y-36750D01*
X48250Y-36750D02*
X48250Y-38750D01*
X48250Y-38750D02*
X47250Y-38750D01*
X47250Y-38750D02*
X47250Y-36750D01*
G54D14*
X49000Y-36500D02*
X49500Y-36500D01*
X49500Y-36500D02*
X49500Y-37500D01*
X49500Y-37500D02*
X49000Y-37500D01*
X49000Y-36000D02*
X53000Y-36000D01*
X53000Y-36000D02*
X53000Y-38000D01*
X53000Y-38000D02*
X49000Y-38000D01*
X49000Y-38000D02*
X49000Y-36000D01*
G54D12*
X49501Y-41000D02*
G75*
G03X49501Y-41000I-1001J0D01*
G74*
G01*
G54D15*
X55700Y-36538D02*
X55680Y-36576D01*
X55642Y-36614D01*
X55585Y-36671D01*
X55566Y-36709D01*
X55566Y-36747D01*
X55661Y-36728D02*
X55642Y-36766D01*
X55604Y-36804D01*
X55528Y-36823D01*
X55395Y-36823D01*
X55319Y-36804D01*
X55280Y-36766D01*
X55261Y-36728D01*
X55261Y-36652D01*
X55280Y-36614D01*
X55319Y-36576D01*
X55395Y-36557D01*
X55528Y-36557D01*
X55604Y-36576D01*
X55642Y-36614D01*
X55661Y-36652D01*
X55661Y-36728D01*
X55661Y-36176D02*
X55661Y-36404D01*
X55661Y-36290D02*
X55261Y-36290D01*
X55319Y-36328D01*
X55357Y-36366D01*
X55376Y-36404D01*
X59161Y-36023D02*
X58761Y-36023D01*
X59161Y-35795D01*
X58761Y-35795D01*
X59161Y-35604D02*
X58761Y-35604D01*
X58761Y-35452D01*
X58780Y-35414D01*
X58800Y-35395D01*
X58838Y-35376D01*
X58895Y-35376D01*
X58933Y-35395D01*
X58952Y-35414D01*
X58971Y-35452D01*
X58971Y-35604D01*
X59161Y-35204D02*
X58761Y-35204D01*
X59161Y-34976D01*
X58761Y-34976D01*
X63466Y-47642D02*
X63523Y-47661D01*
X63619Y-47661D01*
X63657Y-47642D01*
X63676Y-47623D01*
X63695Y-47585D01*
X63695Y-47547D01*
X63676Y-47509D01*
X63657Y-47490D01*
X63619Y-47471D01*
X63542Y-47452D01*
X63504Y-47433D01*
X63485Y-47414D01*
X63466Y-47376D01*
X63466Y-47338D01*
X63485Y-47300D01*
X63504Y-47280D01*
X63542Y-47261D01*
X63638Y-47261D01*
X63695Y-47280D01*
X63828Y-47261D02*
X63923Y-47661D01*
X64000Y-47376D01*
X64076Y-47661D01*
X64171Y-47261D01*
X64533Y-47661D02*
X64304Y-47661D01*
X64419Y-47661D02*
X64419Y-47261D01*
X64380Y-47319D01*
X64342Y-47357D01*
X64304Y-47376D01*
X62695Y-45642D02*
X62752Y-45661D01*
X62847Y-45661D01*
X62885Y-45642D01*
X62904Y-45623D01*
X62923Y-45585D01*
X62923Y-45547D01*
X62904Y-45509D01*
X62885Y-45490D01*
X62847Y-45471D01*
X62771Y-45452D01*
X62733Y-45433D01*
X62714Y-45414D01*
X62695Y-45376D01*
X62695Y-45338D01*
X62714Y-45300D01*
X62733Y-45280D01*
X62771Y-45261D01*
X62866Y-45261D01*
X62923Y-45280D01*
X63057Y-45261D02*
X63152Y-45661D01*
X63228Y-45376D01*
X63304Y-45661D01*
X63400Y-45261D01*
X63457Y-45700D02*
X63761Y-45700D01*
X63857Y-45661D02*
X63857Y-45261D01*
X64009Y-45261D01*
X64047Y-45280D01*
X64066Y-45300D01*
X64085Y-45338D01*
X64085Y-45395D01*
X64066Y-45433D01*
X64047Y-45452D01*
X64009Y-45471D01*
X63857Y-45471D01*
X64257Y-45261D02*
X64257Y-45585D01*
X64276Y-45623D01*
X64295Y-45642D01*
X64333Y-45661D01*
X64409Y-45661D01*
X64447Y-45642D01*
X64466Y-45623D01*
X64485Y-45585D01*
X64485Y-45261D01*
X64657Y-45642D02*
X64714Y-45661D01*
X64809Y-45661D01*
X64847Y-45642D01*
X64866Y-45623D01*
X64885Y-45585D01*
X64885Y-45547D01*
X64866Y-45509D01*
X64847Y-45490D01*
X64809Y-45471D01*
X64733Y-45452D01*
X64695Y-45433D01*
X64676Y-45414D01*
X64657Y-45376D01*
X64657Y-45338D01*
X64676Y-45300D01*
X64695Y-45280D01*
X64733Y-45261D01*
X64828Y-45261D01*
X64885Y-45280D01*
X65057Y-45661D02*
X65057Y-45261D01*
X65057Y-45452D02*
X65285Y-45452D01*
X65285Y-45661D02*
X65285Y-45261D01*
X57466Y-47642D02*
X57523Y-47661D01*
X57619Y-47661D01*
X57657Y-47642D01*
X57676Y-47623D01*
X57695Y-47585D01*
X57695Y-47547D01*
X57676Y-47509D01*
X57657Y-47490D01*
X57619Y-47471D01*
X57542Y-47452D01*
X57504Y-47433D01*
X57485Y-47414D01*
X57466Y-47376D01*
X57466Y-47338D01*
X57485Y-47300D01*
X57504Y-47280D01*
X57542Y-47261D01*
X57638Y-47261D01*
X57695Y-47280D01*
X57828Y-47261D02*
X57923Y-47661D01*
X58000Y-47376D01*
X58076Y-47661D01*
X58171Y-47261D01*
X58304Y-47300D02*
X58323Y-47280D01*
X58361Y-47261D01*
X58457Y-47261D01*
X58495Y-47280D01*
X58514Y-47300D01*
X58533Y-47338D01*
X58533Y-47376D01*
X58514Y-47433D01*
X58285Y-47661D01*
X58533Y-47661D01*
X56695Y-45642D02*
X56752Y-45661D01*
X56847Y-45661D01*
X56885Y-45642D01*
X56904Y-45623D01*
X56923Y-45585D01*
X56923Y-45547D01*
X56904Y-45509D01*
X56885Y-45490D01*
X56847Y-45471D01*
X56771Y-45452D01*
X56733Y-45433D01*
X56714Y-45414D01*
X56695Y-45376D01*
X56695Y-45338D01*
X56714Y-45300D01*
X56733Y-45280D01*
X56771Y-45261D01*
X56866Y-45261D01*
X56923Y-45280D01*
X57057Y-45261D02*
X57152Y-45661D01*
X57228Y-45376D01*
X57304Y-45661D01*
X57400Y-45261D01*
X57457Y-45700D02*
X57761Y-45700D01*
X57857Y-45661D02*
X57857Y-45261D01*
X58009Y-45261D01*
X58047Y-45280D01*
X58066Y-45300D01*
X58085Y-45338D01*
X58085Y-45395D01*
X58066Y-45433D01*
X58047Y-45452D01*
X58009Y-45471D01*
X57857Y-45471D01*
X58257Y-45261D02*
X58257Y-45585D01*
X58276Y-45623D01*
X58295Y-45642D01*
X58333Y-45661D01*
X58409Y-45661D01*
X58447Y-45642D01*
X58466Y-45623D01*
X58485Y-45585D01*
X58485Y-45261D01*
X58657Y-45642D02*
X58714Y-45661D01*
X58809Y-45661D01*
X58847Y-45642D01*
X58866Y-45623D01*
X58885Y-45585D01*
X58885Y-45547D01*
X58866Y-45509D01*
X58847Y-45490D01*
X58809Y-45471D01*
X58733Y-45452D01*
X58695Y-45433D01*
X58676Y-45414D01*
X58657Y-45376D01*
X58657Y-45338D01*
X58676Y-45300D01*
X58695Y-45280D01*
X58733Y-45261D01*
X58828Y-45261D01*
X58885Y-45280D01*
X59057Y-45661D02*
X59057Y-45261D01*
X59057Y-45452D02*
X59285Y-45452D01*
X59285Y-45661D02*
X59285Y-45261D01*
X51466Y-47642D02*
X51523Y-47661D01*
X51619Y-47661D01*
X51657Y-47642D01*
X51676Y-47623D01*
X51695Y-47585D01*
X51695Y-47547D01*
X51676Y-47509D01*
X51657Y-47490D01*
X51619Y-47471D01*
X51542Y-47452D01*
X51504Y-47433D01*
X51485Y-47414D01*
X51466Y-47376D01*
X51466Y-47338D01*
X51485Y-47300D01*
X51504Y-47280D01*
X51542Y-47261D01*
X51638Y-47261D01*
X51695Y-47280D01*
X51828Y-47261D02*
X51923Y-47661D01*
X52000Y-47376D01*
X52076Y-47661D01*
X52171Y-47261D01*
X52285Y-47261D02*
X52533Y-47261D01*
X52400Y-47414D01*
X52457Y-47414D01*
X52495Y-47433D01*
X52514Y-47452D01*
X52533Y-47490D01*
X52533Y-47585D01*
X52514Y-47623D01*
X52495Y-47642D01*
X52457Y-47661D01*
X52342Y-47661D01*
X52304Y-47642D01*
X52285Y-47623D01*
X50695Y-45642D02*
X50752Y-45661D01*
X50847Y-45661D01*
X50885Y-45642D01*
X50904Y-45623D01*
X50923Y-45585D01*
X50923Y-45547D01*
X50904Y-45509D01*
X50885Y-45490D01*
X50847Y-45471D01*
X50771Y-45452D01*
X50733Y-45433D01*
X50714Y-45414D01*
X50695Y-45376D01*
X50695Y-45338D01*
X50714Y-45300D01*
X50733Y-45280D01*
X50771Y-45261D01*
X50866Y-45261D01*
X50923Y-45280D01*
X51057Y-45261D02*
X51152Y-45661D01*
X51228Y-45376D01*
X51304Y-45661D01*
X51400Y-45261D01*
X51457Y-45700D02*
X51761Y-45700D01*
X51857Y-45661D02*
X51857Y-45261D01*
X52009Y-45261D01*
X52047Y-45280D01*
X52066Y-45300D01*
X52085Y-45338D01*
X52085Y-45395D01*
X52066Y-45433D01*
X52047Y-45452D01*
X52009Y-45471D01*
X51857Y-45471D01*
X52257Y-45261D02*
X52257Y-45585D01*
X52276Y-45623D01*
X52295Y-45642D01*
X52333Y-45661D01*
X52409Y-45661D01*
X52447Y-45642D01*
X52466Y-45623D01*
X52485Y-45585D01*
X52485Y-45261D01*
X52657Y-45642D02*
X52714Y-45661D01*
X52809Y-45661D01*
X52847Y-45642D01*
X52866Y-45623D01*
X52885Y-45585D01*
X52885Y-45547D01*
X52866Y-45509D01*
X52847Y-45490D01*
X52809Y-45471D01*
X52733Y-45452D01*
X52695Y-45433D01*
X52676Y-45414D01*
X52657Y-45376D01*
X52657Y-45338D01*
X52676Y-45300D01*
X52695Y-45280D01*
X52733Y-45261D01*
X52828Y-45261D01*
X52885Y-45280D01*
X53057Y-45661D02*
X53057Y-45261D01*
X53057Y-45452D02*
X53285Y-45452D01*
X53285Y-45661D02*
X53285Y-45261D01*
X61222Y-45583D02*
X60960Y-45750D01*
X61222Y-45869D02*
X60672Y-45869D01*
X60672Y-45678D01*
X60698Y-45630D01*
X60725Y-45607D01*
X60777Y-45583D01*
X60855Y-45583D01*
X60908Y-45607D01*
X60934Y-45630D01*
X60960Y-45678D01*
X60960Y-45869D01*
X61222Y-45107D02*
X61222Y-45392D01*
X61222Y-45250D02*
X60672Y-45250D01*
X60751Y-45297D01*
X60803Y-45345D01*
X60829Y-45392D01*
X55222Y-45583D02*
X54960Y-45750D01*
X55222Y-45869D02*
X54672Y-45869D01*
X54672Y-45678D01*
X54698Y-45630D01*
X54725Y-45607D01*
X54777Y-45583D01*
X54855Y-45583D01*
X54908Y-45607D01*
X54934Y-45630D01*
X54960Y-45678D01*
X54960Y-45869D01*
X54725Y-45392D02*
X54698Y-45369D01*
X54672Y-45321D01*
X54672Y-45202D01*
X54698Y-45154D01*
X54725Y-45130D01*
X54777Y-45107D01*
X54829Y-45107D01*
X54908Y-45130D01*
X55222Y-45416D01*
X55222Y-45107D01*
X49222Y-45583D02*
X48960Y-45750D01*
X49222Y-45869D02*
X48672Y-45869D01*
X48672Y-45678D01*
X48698Y-45630D01*
X48725Y-45607D01*
X48777Y-45583D01*
X48855Y-45583D01*
X48908Y-45607D01*
X48934Y-45630D01*
X48960Y-45678D01*
X48960Y-45869D01*
X48672Y-45416D02*
X48672Y-45107D01*
X48882Y-45273D01*
X48882Y-45202D01*
X48908Y-45154D01*
X48934Y-45130D01*
X48986Y-45107D01*
X49117Y-45107D01*
X49170Y-45130D01*
X49196Y-45154D01*
X49222Y-45202D01*
X49222Y-45345D01*
X49196Y-45392D01*
X49170Y-45416D01*
X47722Y-45583D02*
X47460Y-45750D01*
X47722Y-45869D02*
X47172Y-45869D01*
X47172Y-45678D01*
X47198Y-45630D01*
X47225Y-45607D01*
X47277Y-45583D01*
X47355Y-45583D01*
X47408Y-45607D01*
X47434Y-45630D01*
X47460Y-45678D01*
X47460Y-45869D01*
X47355Y-45154D02*
X47722Y-45154D01*
X47146Y-45273D02*
X47539Y-45392D01*
X47539Y-45083D01*
X61222Y-37083D02*
X60960Y-37250D01*
X61222Y-37369D02*
X60672Y-37369D01*
X60672Y-37178D01*
X60698Y-37130D01*
X60725Y-37107D01*
X60777Y-37083D01*
X60855Y-37083D01*
X60908Y-37107D01*
X60934Y-37130D01*
X60960Y-37178D01*
X60960Y-37369D01*
X60672Y-36630D02*
X60672Y-36869D01*
X60934Y-36892D01*
X60908Y-36869D01*
X60882Y-36821D01*
X60882Y-36702D01*
X60908Y-36654D01*
X60934Y-36630D01*
X60986Y-36607D01*
X61117Y-36607D01*
X61170Y-36630D01*
X61196Y-36654D01*
X61222Y-36702D01*
X61222Y-36821D01*
X61196Y-36869D01*
X61170Y-36892D01*
X63222Y-37083D02*
X62960Y-37250D01*
X63222Y-37369D02*
X62672Y-37369D01*
X62672Y-37178D01*
X62698Y-37130D01*
X62725Y-37107D01*
X62777Y-37083D01*
X62855Y-37083D01*
X62908Y-37107D01*
X62934Y-37130D01*
X62960Y-37178D01*
X62960Y-37369D01*
X62672Y-36654D02*
X62672Y-36750D01*
X62698Y-36797D01*
X62725Y-36821D01*
X62803Y-36869D01*
X62908Y-36892D01*
X63117Y-36892D01*
X63170Y-36869D01*
X63196Y-36845D01*
X63222Y-36797D01*
X63222Y-36702D01*
X63196Y-36654D01*
X63170Y-36630D01*
X63117Y-36607D01*
X62986Y-36607D01*
X62934Y-36630D01*
X62908Y-36654D01*
X62882Y-36702D01*
X62882Y-36797D01*
X62908Y-36845D01*
X62934Y-36869D01*
X62986Y-36892D01*
G54D13*
X53761Y-42161D02*
X53628Y-41971D01*
X53533Y-42161D02*
X53533Y-41761D01*
X53685Y-41761D01*
X53723Y-41780D01*
X53742Y-41800D01*
X53761Y-41838D01*
X53761Y-41895D01*
X53742Y-41933D01*
X53723Y-41952D01*
X53685Y-41971D01*
X53533Y-41971D01*
X53876Y-41761D02*
X54009Y-42161D01*
X54142Y-41761D01*
X54485Y-42161D02*
X54257Y-42161D01*
X54371Y-42161D02*
X54371Y-41761D01*
X54333Y-41819D01*
X54295Y-41857D01*
X54257Y-41876D01*
X61871Y-41857D02*
X61914Y-41871D01*
X61985Y-41871D01*
X62014Y-41857D01*
X62028Y-41842D01*
X62042Y-41814D01*
X62042Y-41785D01*
X62028Y-41757D01*
X62014Y-41742D01*
X61985Y-41728D01*
X61928Y-41714D01*
X61900Y-41700D01*
X61885Y-41685D01*
X61871Y-41657D01*
X61871Y-41628D01*
X61885Y-41600D01*
X61900Y-41585D01*
X61928Y-41571D01*
X62000Y-41571D01*
X62042Y-41585D01*
X62171Y-41871D02*
X62171Y-41571D01*
X62285Y-41571D01*
X62314Y-41585D01*
X62328Y-41600D01*
X62342Y-41628D01*
X62342Y-41671D01*
X62328Y-41700D01*
X62314Y-41714D01*
X62285Y-41728D01*
X62171Y-41728D01*
X62628Y-41871D02*
X62457Y-41871D01*
X62542Y-41871D02*
X62542Y-41571D01*
X62514Y-41614D01*
X62485Y-41642D01*
X62457Y-41657D01*
X47871Y-36471D02*
X47571Y-36471D01*
X47571Y-36357D01*
X47585Y-36328D01*
X47600Y-36314D01*
X47628Y-36300D01*
X47671Y-36300D01*
X47700Y-36314D01*
X47714Y-36328D01*
X47728Y-36357D01*
X47728Y-36471D01*
X47871Y-36014D02*
X47871Y-36185D01*
X47871Y-36100D02*
X47571Y-36100D01*
X47614Y-36128D01*
X47642Y-36157D01*
X47657Y-36185D01*
G54D15*
X53452Y-37342D02*
X53857Y-37342D01*
X53904Y-37321D01*
X53928Y-37300D01*
X53952Y-37257D01*
X53952Y-37171D01*
X53928Y-37128D01*
X53904Y-37107D01*
X53857Y-37085D01*
X53452Y-37085D01*
X53952Y-36635D02*
X53952Y-36892D01*
X53952Y-36764D02*
X53452Y-36764D01*
X53523Y-36807D01*
X53571Y-36850D01*
X53595Y-36892D01*
X50323Y-37202D02*
X50133Y-37202D01*
X50133Y-36702D01*
X50457Y-37202D02*
X50457Y-36702D01*
X50590Y-37059D01*
X50723Y-36702D01*
X50723Y-37202D01*
X51104Y-36702D02*
X50914Y-36702D01*
X50895Y-36940D01*
X50914Y-36916D01*
X50952Y-36892D01*
X51047Y-36892D01*
X51085Y-36916D01*
X51104Y-36940D01*
X51123Y-36988D01*
X51123Y-37107D01*
X51104Y-37154D01*
X51085Y-37178D01*
X51047Y-37202D01*
X50952Y-37202D01*
X50914Y-37178D01*
X50895Y-37154D01*
X51485Y-36702D02*
X51295Y-36702D01*
X51276Y-36940D01*
X51295Y-36916D01*
X51333Y-36892D01*
X51428Y-36892D01*
X51466Y-36916D01*
X51485Y-36940D01*
X51504Y-36988D01*
X51504Y-37107D01*
X51485Y-37154D01*
X51466Y-37178D01*
X51428Y-37202D01*
X51333Y-37202D01*
X51295Y-37178D01*
X51276Y-37154D01*
X51866Y-36702D02*
X51676Y-36702D01*
X51657Y-36940D01*
X51676Y-36916D01*
X51714Y-36892D01*
X51809Y-36892D01*
X51847Y-36916D01*
X51866Y-36940D01*
X51885Y-36988D01*
X51885Y-37107D01*
X51866Y-37154D01*
X51847Y-37178D01*
X51809Y-37202D01*
X51714Y-37202D01*
X51676Y-37178D01*
X51657Y-37154D01*
G54D12*
X48450Y-41842D02*
X48435Y-41857D01*
X48392Y-41871D01*
X48364Y-41871D01*
X48321Y-41857D01*
X48292Y-41828D01*
X48278Y-41800D01*
X48264Y-41742D01*
X48264Y-41700D01*
X48278Y-41642D01*
X48292Y-41614D01*
X48321Y-41585D01*
X48364Y-41571D01*
X48392Y-41571D01*
X48435Y-41585D01*
X48450Y-41600D01*
X48735Y-41871D02*
X48564Y-41871D01*
X48650Y-41871D02*
X48650Y-41571D01*
X48621Y-41614D01*
X48592Y-41642D01*
X48564Y-41657D01*
X47880Y-39842D02*
X47869Y-39857D01*
X47833Y-39871D01*
X47809Y-39871D01*
X47773Y-39857D01*
X47750Y-39828D01*
X47738Y-39800D01*
X47726Y-39742D01*
X47726Y-39700D01*
X47738Y-39642D01*
X47750Y-39614D01*
X47773Y-39585D01*
X47809Y-39571D01*
X47833Y-39571D01*
X47869Y-39585D01*
X47880Y-39600D01*
X47976Y-39785D02*
X48095Y-39785D01*
X47952Y-39871D02*
X48035Y-39571D01*
X48119Y-39871D01*
X48202Y-39871D02*
X48202Y-39571D01*
X48297Y-39571D01*
X48321Y-39585D01*
X48333Y-39600D01*
X48345Y-39628D01*
X48345Y-39671D01*
X48333Y-39700D01*
X48321Y-39714D01*
X48297Y-39728D01*
X48202Y-39728D01*
X48440Y-39785D02*
X48559Y-39785D01*
X48416Y-39871D02*
X48500Y-39571D01*
X48583Y-39871D01*
X48666Y-39871D02*
X48666Y-39571D01*
X48761Y-39571D01*
X48785Y-39585D01*
X48797Y-39600D01*
X48809Y-39628D01*
X48809Y-39671D01*
X48797Y-39700D01*
X48785Y-39714D01*
X48761Y-39728D01*
X48666Y-39728D01*
X48964Y-39571D02*
X49011Y-39571D01*
X49035Y-39585D01*
X49059Y-39614D01*
X49071Y-39671D01*
X49071Y-39771D01*
X49059Y-39828D01*
X49035Y-39857D01*
X49011Y-39871D01*
X48964Y-39871D01*
X48940Y-39857D01*
X48916Y-39828D01*
X48904Y-39771D01*
X48904Y-39671D01*
X48916Y-39614D01*
X48940Y-39585D01*
X48964Y-39571D01*
X49297Y-39871D02*
X49178Y-39871D01*
X49178Y-39571D01*
G54D16*
X49285Y-41007D02*
X49514Y-41007D01*
X49400Y-41121D02*
X49400Y-40892D01*
G54D15*
M02*
