M48
;DRILL file {Pcbnew (22-Jun-2014 BZR 4027)-stable} date Fri 01 Jan 2016 12:20:05 PM EST
;FORMAT={-:-/ absolute / metric / decimal}
FMAT,2
METRIC,TZ
T1C0.813
T2C1.016
%
G90
G05
M71
T1
X120.65Y-110.49
X120.65Y-120.65
X121.92Y-104.14
X124.46Y-104.14
X124.46Y-110.49
X124.46Y-120.65
X125.73Y-90.17
X125.73Y-97.79
X128.27Y-90.17
X128.27Y-97.79
X128.27Y-113.03
X128.27Y-118.11
X130.81Y-90.17
X130.81Y-97.79
X133.35Y-90.17
X133.35Y-97.79
X135.89Y-113.03
X135.89Y-118.11
X139.7Y-110.49
X139.7Y-120.65
X143.51Y-92.71
X143.51Y-113.03
X143.51Y-118.11
X146.05Y-92.71
X146.05Y-95.25
X151.13Y-113.03
X151.13Y-118.11
X154.94Y-88.9
X154.94Y-99.06
X154.94Y-110.49
X154.94Y-120.65
X158.75Y-113.03
X158.75Y-118.11
X160.02Y-88.9
X160.02Y-99.06
X166.37Y-113.03
X166.37Y-118.11
T2
X121.285Y-94.615
X121.285Y-97.155
X134.62Y-104.14
X137.16Y-104.14
X139.7Y-104.14
X156.845Y-103.505
X159.385Y-103.505
T0
M30
